<?xml version="1.0" encoding="UTF-8" standalone="no"?>
<svg
   xmlns:dc="http://purl.org/dc/elements/1.1/"
   xmlns:cc="http://creativecommons.org/ns#"
   xmlns:rdf="http://www.w3.org/1999/02/22-rdf-syntax-ns#"
   xmlns:svg="http://www.w3.org/2000/svg"
   xmlns="http://www.w3.org/2000/svg"
   xmlns:sodipodi="http://sodipodi.sourceforge.net/DTD/sodipodi-0.dtd"
   xmlns:inkscape="http://www.inkscape.org/namespaces/inkscape"
   id="emoji"
   viewBox="0 0 72 72"
   version="1.1"
   sodipodi:docname="personSick.svg"
   inkscape:version="0.92.5 (2060ec1f9f, 2020-04-08)">
  <metadata
     id="metadata1064">
    <rdf:RDF>
      <cc:Work
         rdf:about="">
        <dc:format>image/svg+xml</dc:format>
        <dc:type
           rdf:resource="http://purl.org/dc/dcmitype/StillImage" />
      </cc:Work>
    </rdf:RDF>
  </metadata>
  <defs
     id="defs1062" />
  <sodipodi:namedview
     pagecolor="#ffffff"
     bordercolor="#666666"
     borderopacity="1"
     objecttolerance="10"
     gridtolerance="10"
     guidetolerance="10"
     inkscape:pageopacity="0"
     inkscape:pageshadow="2"
     inkscape:window-width="1920"
     inkscape:window-height="1008"
     id="namedview1060"
     showgrid="false"
     inkscape:zoom="6.5555556"
     inkscape:cx="-3.3929011"
     inkscape:cy="40.672513"
     inkscape:window-x="0"
     inkscape:window-y="44"
     inkscape:window-maximized="1"
     inkscape:current-layer="emoji" />
  <g
     id="color">
    <path
       fill="#92D3F5"
       d="M17,61v-4c0-4.9941,5.0078-9,10-9c6,5,12,5,18,0c4.9941,0,10,4.0059,10,9v4"
       id="path1036" />
  </g>
  <g
     id="hair">
    <path
       fill="#F1B31C"
       d="M26,39c-4,0-4-6-4-13s4-14,14-14s14,7,14,14s0,13-4,13"
       id="path1039" />
  </g>
  <g
     id="skin">
    <path
       fill="#FCEA2B"
       d="M24.9365,31c0,9,4.9365,14,11,14C41.873,45,47,40,47,31c0-3-1-5.0005-1-5.0005c-3-2.9995-7-8-7-8 c-4,3-7,6-13,7.0005C26,25,24.9365,25.9995,24.9365,31z"
       id="path1042"
       style="fill:#ea5a47;fill-opacity:1" />
  </g>
  <g
     id="skin-shadow" />
  <g
     id="line">
    <path
       fill="none"
       stroke="#000000"
       stroke-linecap="round"
       stroke-linejoin="round"
       stroke-width="2"
       d="M26,39c-4,0-4-6-4-13 s4-14,14-14s14,7,14,14s0,13-4,13"
       id="path1046" />
    <path
       fill="none"
       stroke="#000000"
       stroke-linecap="round"
       stroke-linejoin="round"
       stroke-width="2"
       d="M17,60v-3 c0-4.9941,5.0078-9,10-9c6,5,12,5,18,0c4.9941,0,10,4.0059,10,9v3"
       id="path1048" />
    <path
       fill="none"
       stroke="#000000"
       stroke-linejoin="round"
       stroke-width="2"
       d="M24.9365,31c0,9,4.9365,14,11,14 C41.873,45,47,40,47,31c0-3-1-5.0005-1-5.0005c-3-2.9995-7-8-7-8c-4,3-7,6-13,7.0005C26,25,24.9365,25.9995,24.9365,31z"
       id="path1054" />
  </g>
  <g
     transform="translate(41.79661,-0.91525424)"
     id="hair-6" />
  <g
     transform="translate(41.79661,-0.91525424)"
     id="skin-7" />
  <g
     transform="translate(41.79661,-0.91525424)"
     id="skin-shadow-5" />
  <g
     transform="matrix(0.4,0,0,0.4,22.084795,17.772425)"
     id="color-3">
    <circle
       style="fill:#ea5a47"
       cx="36"
       cy="36"
       r="23"
       id="circle2" />
    <path
       style="stroke-width:0.85159999"
       inkscape:connector-curvature="0"
       d="m 32.47,49 h -3.617 c -1.856,-0.0056 -3.36,-1.546 -3.365,-3.448 0.0055,-1.902 1.509,-3.442 3.365,-3.448 h 14.3 c 1.856,0.0056 3.36,1.546 3.365,3.448 -0.0055,1.902 -1.509,3.442 -3.365,3.448 h -1.785"
       id="path4" />
    <path
       inkscape:connector-curvature="0"
       d="M 40.87,49 H 40.364"
       id="path6" />
    <path
       inkscape:connector-curvature="0"
       d="M 42.38,49 H 40.875"
       id="path8" />
    <path
       style="fill:#92d3f5"
       inkscape:connector-curvature="0"
       d="m 40.913335,17.025745 c -0.5305,-0.5275 -0.8278,-1.246 -0.8256,-1.994 0,-2.479 2.343,-4.851 2.443,-4.95 0.2068,-0.2071 0.5424,-0.2073 0.7495,-5e-4 l 5e-4,5e-4 c 0.1,0.1 2.443,2.472 2.444,4.951 -0.0013,1.557 -1.265,2.818 -2.822,2.817 -0.7462,-6e-4 -1.462,-0.2971 -1.99,-0.8243 z"
       id="path10"
       inkscape:transform-center-x="2.25"
       inkscape:transform-center-y="-0.15254237" />
    <path
       style="fill:#ffa7c0"
       inkscape:connector-curvature="0"
       d="m 41.66,44.82 c 0,6.075 -2.532,11 -5.656,11 -3.124,0 -5.656,-4.925 -5.656,-11 4.014,-1.7 7.761,-1.537 11.31,0 z"
       id="path12" />
  </g>
  <g
     transform="matrix(0.4,0,0,0.4,22.084795,17.772425)"
     id="line-3">
    <path
       inkscape:connector-curvature="0"
       d="m 27.84461,32.151798 c -0.0017,1.9884 -1.6152,3.5988 -3.6024,3.5976 -1.9872,-0.0012 -3.5988,-1.6152 -3.5976,-3.6024 0.0012,-1.9872 1.6152,-3.5988 3.6024,-3.5976 1.9884,0.0024 3.5976,1.6152 3.5976,3.6024"
       id="path20"
       style="stroke-width:1.20000005" />
    <path
       inkscape:connector-curvature="0"
       d="m 48.300542,30.07834 c -0.0017,1.9884 -1.6152,3.5988 -3.6024,3.5976 -1.9872,-0.0012 -3.5988,-1.6152 -3.5976,-3.6024 0.0012,-1.9872 1.6152,-3.5988 3.6024,-3.5976 1.9884,0.0023 3.5976,1.6152 3.5976,3.6024"
       id="path22"
       style="stroke-width:1.20000005" />
    <path
       style="fill:none;stroke:#000000;stroke-width:2.4000001;stroke-linecap:round;stroke-linejoin:round"
       inkscape:connector-curvature="0"
       d="m 17.854,25.543764 c 2.0568,0.59712 4.2624,0.40596 6.186,-0.53628 1.6092,-0.82212 2.9148,-2.136 3.726,-3.7512"
       id="path24" />
    <path
       style="fill:none;stroke:#000000;stroke-width:2.4000001;stroke-linecap:round;stroke-linejoin:round"
       inkscape:connector-curvature="0"
       d="m 54.166,25.543764 c -2.0568,0.59712 -4.2624,0.40596 -6.186,-0.53628 -1.6092,-0.82212 -2.9148,-2.136 -3.726,-3.7512"
       id="path26" />
    <path
       style="fill:none;stroke:#000000;stroke-width:2;stroke-linecap:round;stroke-linejoin:round;stroke-miterlimit:10"
       inkscape:connector-curvature="0"
       stroke-miterlimit="10"
       d="m 41.66,44.82 c 0,6.075 -2.532,11 -5.656,11 -3.124,0 -5.656,-4.925 -5.656,-11 5.141,-1.979 8.198,-0.9474 11.31,0 z"
       id="path28" />
    <path
       style="fill:none;stroke:#000000;stroke-width:2;stroke-linecap:round;stroke-linejoin:round;stroke-miterlimit:10"
       inkscape:connector-curvature="0"
       stroke-miterlimit="10"
       d="m 40.912735,17.025445 c -0.5305,-0.5275 -0.8278,-1.246 -0.8256,-1.994 0,-2.479 2.343,-4.851 2.443,-4.95 0.2068,-0.2070999 0.5424,-0.2072999 0.7495,-5e-4 l 5e-4,5e-4 c 0.1,0.1 2.443,2.472 2.444,4.951 -0.0013,1.557 -1.265,2.818 -2.822,2.817 -0.7462,-6e-4 -1.462,-0.2971 -1.99,-0.8243 z"
       id="path30" />
    <path
       style="fill:none;stroke:#000000;stroke-width:1.73699999;stroke-miterlimit:2"
       inkscape:connector-curvature="0"
       stroke-miterlimit="2"
       d="m 31.56,49.05 h -2.739 c -1.865,-0.0058 -3.375,-1.601 -3.381,-3.571 0.0055,-1.97 1.516,-3.566 3.381,-3.571 h 14.37 c 1.865,0.0058 3.375,1.601 3.381,3.571 -0.0055,1.97 -1.516,3.566 -3.381,3.571 h -2.649"
       id="path32" />
  </g>
</svg>
