<?xml version="1.0" encoding="UTF-8" standalone="no"?>
<svg
   xmlns:dc="http://purl.org/dc/elements/1.1/"
   xmlns:cc="http://creativecommons.org/ns#"
   xmlns:rdf="http://www.w3.org/1999/02/22-rdf-syntax-ns#"
   xmlns:svg="http://www.w3.org/2000/svg"
   xmlns="http://www.w3.org/2000/svg"
   xmlns:sodipodi="http://sodipodi.sourceforge.net/DTD/sodipodi-0.dtd"
   xmlns:inkscape="http://www.inkscape.org/namespaces/inkscape"
   id="emoji"
   viewBox="0 0 72 72"
   version="1.1"
   sodipodi:docname="personInfectious.svg"
   inkscape:version="0.92.5 (2060ec1f9f, 2020-04-08)">
  <metadata
     id="metadata30">
    <rdf:RDF>
      <cc:Work
         rdf:about="">
        <dc:format>image/svg+xml</dc:format>
        <dc:type
           rdf:resource="http://purl.org/dc/dcmitype/StillImage" />
        <dc:title></dc:title>
      </cc:Work>
    </rdf:RDF>
  </metadata>
  <defs
     id="defs28" />
  <sodipodi:namedview
     pagecolor="#ffffff"
     bordercolor="#666666"
     borderopacity="1"
     objecttolerance="10"
     gridtolerance="10"
     guidetolerance="10"
     inkscape:pageopacity="0"
     inkscape:pageshadow="2"
     inkscape:window-width="1920"
     inkscape:window-height="1008"
     id="namedview26"
     showgrid="false"
     inkscape:zoom="8"
     inkscape:cx="7.3206159"
     inkscape:cy="22.368702"
     inkscape:window-x="0"
     inkscape:window-y="44"
     inkscape:window-maximized="1"
     inkscape:current-layer="line" />
  <g
     id="color">
    <path
       fill="#92D3F5"
       d="M17,61v-4c0-4.9941,5.0078-9,10-9c6,5,12,5,18,0c4.9941,0,10,4.0059,10,9v4"
       id="path2" />
  </g>
  <g
     id="hair">
    <path
       fill="#F1B31C"
       d="M26,39c-4,0-4-6-4-13s4-14,14-14s14,7,14,14s0,13-4,13"
       id="path5" />
  </g>
  <g
     id="skin">
    <path
       d="M24.9365,31c0,9,4.9365,14,11,14C41.873,45,47,40,47,31c0-3-1-5.0005-1-5.0005c-3-2.9995-7-8-7-8 c-4,3-7,6-13,7.0005C26,25,24.9365,25.9995,24.9365,31z"
       id="path8"
       fill="#FCEA2B"
       style="fill:#ea5a47;fill-opacity:1" />
  </g>
  <g
     id="skin-shadow" />
  <g
     id="line">
    <path
       d="M26,39c-4,0-4-6-4-13 s4-14,14-14s14,7,14,14s0,13-4,13"
       id="path12"
       stroke-linejoin="round"
       stroke-linecap="round"
       stroke-width="2"
       stroke="#000000"
       fill="none" />
    <path
       d="M17,60v-3 c0-4.9941,5.0078-9,10-9c6,5,12,5,18,0c4.9941,0,10,4.0059,10,9v3"
       id="path14"
       stroke-linejoin="round"
       stroke-linecap="round"
       stroke-width="2"
       stroke="#000000"
       fill="none" />
    <path
       d="M24.9365,31c0,9,4.9365,14,11,14 C41.873,45,47,40,47,31c0-3-1-5.0005-1-5.0005c-3-2.9995-7-8-7-8c-4,3-7,6-13,7.0005C26,25,24.9365,25.9995,24.9365,31z"
       id="path20"
       stroke-linejoin="round"
       stroke-width="2"
       stroke="#000000"
       fill="none" />
    <g
       transform="matrix(0.5,0,0,0.5,18.192957,15.282136)"
       id="color-3">
      <path
         style="fill:#b1cc33"
         inkscape:connector-curvature="0"
         d="m 47.1996,51.282 c 2.4604,0 5.4331,1.947 5.4331,3.6822 0,1.1754 -0.9151,2.2 -2.2701,2.7388 0.9556,3.1123 -1.2429,4.6605 -2.9806,4.8865 -1.0209,0.1328 -2.1134,-0.4142 -2.7863,-1.093 0,1.3994 -1.1345,2.5339 -2.5339,2.5339 -1.3994,0 -2.9144,-0.937 -2.9144,-2.3364 -0.3126,1.0449 -1.2813,1.8065 -2.428,1.8065 -1.0988,0 -2.2616,-0.8964 -2.6128,-1.8743 -0.3646,1.4932 -1.6132,2.2102 -2.9144,1.9393 -1.0753,-0.2239 -1.8354,-1.051 -1.9545,-1.9724 -0.1766,1.2269 -1.5284,2.4373 -2.8041,2.4373 -1.3994,0 -2.5339,-1.1345 -2.5339,-2.5339 -1.3994,0 -3.1504,-0.8857 -3.1504,-2.2852 0,-1.3994 1.1473,-2.6613 2.5467,-2.6613 -0.6745,-0.4553 -1.118,-1.2267 -1.118,-2.1017 0,-1.3994 1.7368,-2.7662 3.1362,-2.7662 -0.1313,-0.2663 -0.2489,-0.5384 -0.3522,-0.8158 -0.3427,-0.9206 -0.5273,-1.8993 -0.5273,-2.9141 0,-5.4121 5.2516,-9.7995 11.7297,-9.7995 6.4781,0 11.7297,4.3874 11.7297,9.7995 0,1.169 -0.245,2.2903 -0.6945,3.3298 z"
         id="path4" />
    </g>
    <g
       transform="matrix(0.5,0,0,0.5,18.192957,15.282136)"
       id="line-5">
      <polyline
         style="fill:none;stroke:#000000;stroke-width:2;stroke-linecap:round;stroke-linejoin:round;stroke-miterlimit:10"
         stroke-miterlimit="10"
         points="25.1678,26.4126 31.7548,30.4265 25.1678,34.1644"
         id="polyline10" />
      <polyline
         style="fill:none;stroke:#000000;stroke-width:2;stroke-linecap:round;stroke-linejoin:round;stroke-miterlimit:10"
         stroke-miterlimit="10"
         points="46.8322,26.4126 40.2452,30.4265 46.8322,34.1644"
         id="polyline12" />
      <path
         style="fill:none;stroke:#000000;stroke-width:2;stroke-linecap:round;stroke-linejoin:round;stroke-miterlimit:10"
         inkscape:connector-curvature="0"
         stroke-miterlimit="10"
         d="m 43.2806,19.0706 c 0.5464,1.4632 1.6142,2.6709 2.9996,3.3911 1.3093,0.8663 2.8945,1.2106 4.4451,0.9702"
         id="path16" />
      <path
         style="fill:none;stroke:#000000;stroke-width:2;stroke-linecap:round;stroke-linejoin:round;stroke-miterlimit:10"
         inkscape:connector-curvature="0"
         stroke-miterlimit="10"
         d="m 28.7194,19.0706 c -0.5464,1.4632 -1.6142,2.6709 -2.9996,3.3911 -1.3093,0.8663 -2.8945,1.2106 -4.4451,0.9702"
         id="path18" />
      <path
         style="fill:none;stroke:#000000;stroke-width:2;stroke-linecap:round;stroke-linejoin:round;stroke-miterlimit:10"
         inkscape:connector-curvature="0"
         stroke-miterlimit="10"
         d="m 47.1996,51.282 c 2.4604,0 5.4331,1.947 5.4331,3.6822 0,1.1754 -0.9151,2.2 -2.2701,2.7388 0.9556,3.1123 -1.2429,4.6605 -2.9806,4.8865 -1.0209,0.1328 -2.1134,-0.4142 -2.7863,-1.093 0,1.3994 -1.1345,2.5339 -2.5339,2.5339 -1.3994,0 -2.9144,-0.937 -2.9144,-2.3364 -0.3126,1.0449 -1.2813,1.8065 -2.428,1.8065 -1.0988,0 -2.2616,-0.8964 -2.6128,-1.8743 -0.3646,1.4932 -1.6132,2.2102 -2.9144,1.9393 -1.0753,-0.2239 -1.8354,-1.051 -1.9545,-1.9724 -0.1766,1.2269 -1.5284,2.4373 -2.8041,2.4373 -1.3994,0 -2.5339,-1.1345 -2.5339,-2.5339 -1.3994,0 -3.1504,-0.8857 -3.1504,-2.2852 0,-1.3994 1.1473,-2.6613 2.5467,-2.6613 -0.6745,-0.4553 -1.118,-1.2267 -1.118,-2.1017 0,-1.3994 1.7368,-2.7662 3.1362,-2.7662 -0.1313,-0.2663 -0.2489,-0.5384 -0.3522,-0.8158 -0.3427,-0.9206 -0.5273,-1.8993 -0.5273,-2.9141 0,-5.4121 5.2516,-9.7995 11.7297,-9.7995 6.4781,0 11.7297,4.3874 11.7297,9.7995 0,1.169 -0.245,2.2903 -0.6945,3.3298 z"
         id="path20-2" />
    </g>
  </g>
  <path
     style="fill:#ea5a47;fill-opacity:1;stroke:#ffff00;stroke-width:0.02696594;stroke-opacity:1"
     d=""
     id="path908"
     inkscape:connector-curvature="0" />
</svg>
