<?xml version="1.0" encoding="UTF-8" standalone="no"?>
<svg
   xmlns:dc="http://purl.org/dc/elements/1.1/"
   xmlns:cc="http://creativecommons.org/ns#"
   xmlns:rdf="http://www.w3.org/1999/02/22-rdf-syntax-ns#"
   xmlns:svg="http://www.w3.org/2000/svg"
   xmlns="http://www.w3.org/2000/svg"
   xmlns:sodipodi="http://sodipodi.sourceforge.net/DTD/sodipodi-0.dtd"
   xmlns:inkscape="http://www.inkscape.org/namespaces/inkscape"
   id="emoji"
   viewBox="0 0 72 72"
   version="1.1"
   sodipodi:docname="horsepillsvg.svg"
   inkscape:version="0.92.5 (2060ec1f9f, 2020-04-08)">
  <metadata
     id="metadata30">
    <rdf:RDF>
      <cc:Work
         rdf:about="">
        <dc:format>image/svg+xml</dc:format>
        <dc:type
           rdf:resource="http://purl.org/dc/dcmitype/StillImage" />
        <dc:title></dc:title>
      </cc:Work>
    </rdf:RDF>
  </metadata>
  <defs
     id="defs28" />
  <sodipodi:namedview
     pagecolor="#ffffff"
     bordercolor="#666666"
     borderopacity="1"
     objecttolerance="10"
     gridtolerance="10"
     guidetolerance="10"
     inkscape:pageopacity="0"
     inkscape:pageshadow="2"
     inkscape:window-width="1134"
     inkscape:window-height="778"
     id="namedview26"
     showgrid="false"
     inkscape:zoom="4.6354778"
     inkscape:cx="37.264236"
     inkscape:cy="29.704524"
     inkscape:window-x="346"
     inkscape:window-y="73"
     inkscape:window-maximized="0"
     inkscape:current-layer="emoji" />
  <g
     id="color"
     transform="translate(-1.3250276,-2.1139115)">
    <path
       d="M 44.33,44.71 32.52,56.52 c -4.53,4.54 -11.85,4.7 -16.58,0.4901 8.96,0.08 8.4,0.65 24.87,-15.82 z"
       id="path2"
       inkscape:connector-curvature="0"
       style="fill:#d22f27;stroke:none" />
    <path
       d="M 40.81,41.19 C 24.34,57.66 24.9,57.09 15.94,57.01 c -0.18,-0.16 -0.35,-0.32 -0.52,-0.4901 -2.35,-2.35 -3.53,-5.45 -3.53,-8.55 0,-3.1 1.18,-6.2 3.53,-8.55 l 11.81,-11.81 z"
       id="path4"
       inkscape:connector-curvature="0"
       style="fill:#ea5a47;stroke:none" />
    <path
       d="m 56.85,15.1 c -2.47,-2.47 -5.75,-3.83 -9.2599,-3.83 -3.51,0 -6.8,1.36 -9.26,3.83 L 25.81,27.61 44.33,46.13 56.84,33.61 c 2.47,-2.46 3.83,-5.75 3.83,-9.26 0,-3.5 -1.36,-6.79 -3.82,-9.25 z M 56.14,32.9 44.33,44.71 40.81,41.19 c 0.42,-0.42 0.86,-0.86 1.31,-1.31 15.72,-15.72 8.77,-25.05 6.21,-27.59 2.85,0.18 5.65,1.35 7.81,3.51 2.35,2.35 3.53,5.45 3.53,8.55 0,3.1 -1.18,6.2 -3.53,8.55 z"
       id="path6"
       inkscape:connector-curvature="0"
       style="fill:#92d3f5;stroke:none" />
    <path
       d="m 57.55,14.39 c -2.65,-2.66 -6.19,-4.1201 -9.96,-4.1201 -3.78,0 -7.32,1.46 -9.97,4.1201 l -13.22,13.22 1.41,1.42 17.1,17.1 1.42,1.41 13.22,-13.22 c 2.66,-2.66 4.12,-6.2 4.12,-9.97 0,-3.77 -1.46,-7.31 -4.12,-9.96 z M 44.33,44.71 40.81,41.19 27.23,27.61 39.04,15.8 c 2.35,-2.35 5.45,-3.53 8.55,-3.53 0.25,0 0.49,0.01 0.74,0.02 2.85,0.18 5.65,1.35 7.81,3.51 2.35,2.35 3.53,5.45 3.53,8.55 0,3.1 -1.18,6.2 -3.53,8.55 z"
       id="path8"
       inkscape:connector-curvature="0"
       style="fill:#92d3f5;stroke:none" />
    <path
       d="m 59.67,24.35 c 0,3.1 -1.18,6.2 -3.53,8.55 L 44.33,44.71 40.81,41.19 c 0.42,-0.42 0.86,-0.86 1.31,-1.31 15.72,-15.72 8.77,-25.05 6.21,-27.59 2.85,0.18 5.65,1.35 7.81,3.51 2.35,2.35 3.53,5.45 3.53,8.55 z"
       id="path10"
       inkscape:connector-curvature="0"
       style="fill:#61b2e4;stroke:none" />
    <line
       x1="27.2279"
       x2="26.6579"
       y1="27.613501"
       y2="27.033501"
       id="line12"
       style="fill:none;stroke:none" />
    <rect
       x="40.8452"
       y="39.013199"
       width="5.8081999"
       height="6.5640998"
       transform="matrix(0.7071,0.7071,-0.7071,0.7071,42.7211,-18.5474)"
       id="rect14"
       style="fill:#61b2e4;stroke:none" />
  </g>
  <g
     id="hair" />
  <g
     id="skin" />
  <g
     id="skin-shadow" />
  <g
     id="line"
     transform="translate(-1.3250276,-2.1139115)">
    <path
       d="m 47.5877,12.2742 c 3.1001,0 6.2001,1.1759 8.5519,3.5276 v 0 c 4.7035,4.7035 4.7035,12.4002 0,17.1038 L 32.52,56.5251 c -2.3518,2.3518 -5.4518,3.5277 -8.5519,3.5277 -3.1001,0 -6.2001,-1.1759 -8.5519,-3.5277 v 0 c -4.7035,-4.7035 -4.7035,-12.4002 0,-17.1038 L 39.0357,15.8018 c 2.3518,-2.3518 5.4519,-3.5276 8.552,-3.5276 m 0,-2 c -3.7741,0 -7.3135,1.4608 -9.9661,4.1134 L 14.002,38.0071 c -5.4953,5.4953 -5.4953,14.4369 0,19.9322 2.6526,2.6526 6.192,4.1135 9.9661,4.1135 3.7741,0 7.3135,-1.4608 9.9661,-4.1134 L 57.5538,34.3199 c 5.4953,-5.4953 5.4953,-14.4369 0,-19.9322 -2.6526,-2.6527 -6.192,-4.1135 -9.9661,-4.1135 z"
       id="path20"
       inkscape:connector-curvature="0"
       style="fill:#000000;stroke:none" />
    <line
       x1="28.5625"
       x2="41.421902"
       y1="30.4062"
       y2="43.265598"
       stroke-miterlimit="10"
       id="line22"
       style="fill:none;stroke:#000000;stroke-width:2;stroke-linecap:round;stroke-miterlimit:10" />
  </g>
  <g
     id="g881"
     transform="matrix(0.34867844,0,0,0.34867844,18.643038,21.891703)">
    <g
       id="color-6">
      <path
         id="path840"
         d="m 22.7544,11.0855 1.6667,7.1667 -5.3333,5.3333 -8.3333,14.3333 1,4.6667 2.1667,1.3333 4,-0.1667 3.5,-3.3333 6.8333,-1.8333 c 0,0 1.3333,1.5 2.1667,3 0.8334,1.5 3.6667,4.1667 3.6667,4.1667 l 0.5,6 -1.8333,6.1667 -2,2.8333 c 0,0 22,9.5 33.1667,-7 l -0.5,-6 -1.8333,-5 -3.3333,-5.1667 -1,-1.5 -0.1667,-5.1667 -2.8333,-5.3333 -5,-3 -2.6667,-4.5 -5.1667,-4.1667 -6.5,-1.5 -5.6667,1 -4.1667,-2.1667 z"
         inkscape:connector-curvature="0"
         style="fill:#a57939;stroke:none" />
      <path
         id="path842"
         d="m 64.7106,62.7214 c -0.9631,-2.3846 -0.5769,-5.6313 -0.1453,-7.3825 0.2628,-1.0662 0.3215,-2.1766 0.1378,-3.2592 C 63.224,43.367 57.7048,36.9604 57.7048,36.9604 l -0.4205,1.8071 C 58.359,32.2408 55.1294,27.4604 55.1294,27.4604 l -5.2085,-4.095 -0.1175,0.6046 c -2.2811,-6.5568 -10.049,-9.9924 -10.049,-9.9924 l -10.7678,-0.1362 2.4602,4.0656 5.792,2.0801 3.5322,2.8413 2.2761,4.3124 0.2832,4.8929 -1.4169,5.6426 -0.3258,6.0341 1.5833,4.7642 c 2.321,7.1157 7.7722,7.2844 9.4165,7.1639 l 0.0364,0.7856 c 0.0051,0.1072 0.0179,0.2164 0.0417,0.321 1.0129,4.4402 6.5474,7.319 10.2568,8.0876 1.2262,0.2542 2.2572,-0.9502 1.7883,-2.1113 z M 52.2424,49.4561 c 0.067,-0.1094 0.1366,-0.2226 0.2172,-0.3541 -0.0763,0.1243 -0.1486,0.2422 -0.2172,0.3541 z m -0.1534,4.734 0.4487,0.3732 0.0138,0.2971 C 52.3948,54.6373 52.2339,54.4149 52.089,54.1901 Z m -0.37,-3.8808 c -0.0577,0.094 -0.0622,0.1015 0,0 z m 0.0205,-0.0334 c 0.063,-0.1028 0.178,-0.2902 0.3435,-0.56 -0.155,0.2527 -0.2744,0.4474 -0.3435,0.56 z m 4.4978,-7.2547 -2.1681,4.0145 c 0.2203,-0.5795 0.4586,-1.1631 0.7343,-1.7551 0.9119,-1.4865 1.5479,-2.9395 1.9739,-4.3344 l -0.3918,1.6837 c -0.0318,0.1364 -0.0816,0.268 -0.1483,0.3913 z m -3.5675,5.7378 c 0.0782,-0.1277 0.1625,-0.2649 0.2516,-0.41 -0.0859,0.1399 -0.1695,0.2763 -0.2516,0.41 z m 0.798,-1.3009 c 0.1384,-0.2257 0.2872,-0.4683 0.4448,-0.7251 -0.1416,0.2308 -0.2912,0.4747 -0.4448,0.7251 z m 0.8601,-1.4022 c 0.0613,-0.0999 0.1266,-0.2064 0.1904,-0.3103 -0.0563,0.0919 -0.1213,0.1977 -0.1904,0.3103 z m 0.3892,-0.6345 c 0.0051,-0.0084 0.0095,-0.0156 0.0146,-0.024 -0.0046,0.0078 -0.0095,0.0156 -0.0146,0.024 z"
         inkscape:connector-curvature="0"
         style="fill:#6a462f;stroke:none" />
    </g>
    <g
       id="hair-7" />
    <g
       id="skin-5" />
    <g
       id="skin-shadow-3" />
    <g
       id="line-5">
      <path
         id="path848"
         d="m 57.2049,36.8681 c 1.768,2.3617 6.5451,6.6821 6.0451,16.2382"
         stroke-miterlimit="10"
         inkscape:connector-curvature="0"
         style="fill:none;stroke:#000000;stroke-width:2;stroke-linecap:round;stroke-linejoin:round;stroke-miterlimit:10" />
      <path
         id="path850"
         d="m 31.25,40.9708 c 0,0 8.4783,6.7823 0,18.7647"
         stroke-miterlimit="10"
         inkscape:connector-curvature="0"
         style="fill:none;stroke:#000000;stroke-width:2;stroke-linecap:round;stroke-linejoin:round;stroke-miterlimit:10" />
      <path
         id="path852"
         d="m 33.9462,29.955 c 0.5489,8.3555 -9.3225,9.703 -11.954,10.3347 -0.3325,0.0798 -0.6318,0.25 -0.8736,0.4919 l -2.2227,2.2227 c -0.3494,0.3494 -0.8234,0.5458 -1.3176,0.5458 h -3.5121 c -1.203,0 -2.2711,-0.7698 -2.6515,-1.9111 l -0.531,-1.5931 c -0.258,-0.774 -0.1649,-1.6222 0.2549,-2.3218 l 8.7862,-14.6436 4.7238,-4.7238 -2.1151,-6.9054 c 0,0 7.8026,-0.6987 8.4135,5.3308 0,0 16.9281,2.4418 10.5531,19.383 0,0 -1.625,5.9489 2.375,11.1846"
         stroke-miterlimit="10"
         inkscape:connector-curvature="0"
         style="fill:none;stroke:#000000;stroke-width:2;stroke-linecap:round;stroke-linejoin:round;stroke-miterlimit:10" />
      <path
         id="path854"
         d="m 29.6667,13.1063 c 0,0 22.2444,-4.0208 19.9583,19.9583"
         stroke-miterlimit="10"
         inkscape:connector-curvature="0"
         style="fill:none;stroke:#000000;stroke-width:2;stroke-linecap:round;stroke-linejoin:round;stroke-miterlimit:10" />
      <path
         id="path856"
         d="m 48.6687,22.2404 c 0,0 14.7665,6.5865 5.4563,22.22 0,0 -5.375,6.5625 0.625,13.6042"
         stroke-miterlimit="10"
         inkscape:connector-curvature="0"
         style="fill:none;stroke:#000000;stroke-width:2;stroke-linecap:round;stroke-linejoin:round;stroke-miterlimit:10" />
      <circle
         id="circle858"
         r="2"
         cy="28.0159"
         cx="23.1667"
         style="fill:#000000;stroke:none" />
    </g>
  </g>
  <g
     id="g931"
     transform="matrix(0.6561,0,0,0.6561,23.130898,25.264993)">
    <g
       id="color-1">
      <circle
         id="circle902"
         r="22.770201"
         cy="35.951801"
         cx="36.073101"
         style="fill:#b1cc33;stroke:none" />
    </g>
    <g
       id="hair-2" />
    <g
       id="skin-7" />
    <g
       id="skin-shadow-0" />
    <g
       id="line-9">
      <line
         id="line908"
         stroke-miterlimit="10"
         y2="49.5769"
         y1="22.3267"
         x2="36.073101"
         x1="36.073101"
         style="fill:none;stroke:#000000;stroke-width:2;stroke-linecap:round;stroke-linejoin:round;stroke-miterlimit:10" />
      <line
         id="line910"
         stroke-miterlimit="10"
         y2="35.951801"
         y1="35.951801"
         x2="22.447901"
         x1="49.6982"
         style="fill:none;stroke:#000000;stroke-width:2;stroke-linecap:round;stroke-linejoin:round;stroke-miterlimit:10" />
      <circle
         id="circle912"
         stroke-miterlimit="10"
         r="23"
         cy="35.951801"
         cx="36.073101"
         style="fill:none;stroke:#000000;stroke-width:2;stroke-linecap:round;stroke-linejoin:round;stroke-miterlimit:10" />
    </g>
  </g>
</svg>
