<?xml version="1.0" encoding="UTF-8" standalone="no"?>
<svg
   xmlns:dc="http://purl.org/dc/elements/1.1/"
   xmlns:cc="http://creativecommons.org/ns#"
   xmlns:rdf="http://www.w3.org/1999/02/22-rdf-syntax-ns#"
   xmlns:svg="http://www.w3.org/2000/svg"
   xmlns="http://www.w3.org/2000/svg"
   xmlns:sodipodi="http://sodipodi.sourceforge.net/DTD/sodipodi-0.dtd"
   xmlns:inkscape="http://www.inkscape.org/namespaces/inkscape"
   id="emoji"
   viewBox="0 0 72 72"
   version="1.1"
   sodipodi:docname="natural selection.svg"
   inkscape:version="0.92.5 (2060ec1f9f, 2020-04-08)">
  <metadata
     id="metadata46">
    <rdf:RDF>
      <cc:Work
         rdf:about="">
        <dc:format>image/svg+xml</dc:format>
        <dc:type
           rdf:resource="http://purl.org/dc/dcmitype/StillImage" />
        <dc:title />
      </cc:Work>
    </rdf:RDF>
  </metadata>
  <defs
     id="defs44" />
  <sodipodi:namedview
     pagecolor="#ffffff"
     bordercolor="#666666"
     borderopacity="1"
     objecttolerance="10"
     gridtolerance="10"
     guidetolerance="10"
     inkscape:pageopacity="0"
     inkscape:pageshadow="2"
     inkscape:window-width="1920"
     inkscape:window-height="1008"
     id="namedview42"
     showgrid="false"
     showguides="false"
     inkscape:zoom="9.1772999"
     inkscape:cx="5.1507604"
     inkscape:cy="30.20087"
     inkscape:window-x="1920"
     inkscape:window-y="44"
     inkscape:window-maximized="1"
     inkscape:current-layer="emoji" />
  <g
     id="color"
     transform="translate(-0.13474636,-14.472988)">
    <line
       x1="45"
       x2="45"
       y1="56.434898"
       y2="52"
       id="line2"
       style="fill:#ffffff;stroke:none;stroke-width:2;stroke-linecap:round;stroke-linejoin:round" />
    <line
       x1="58"
       x2="58"
       y1="53.434898"
       y2="49"
       id="line4"
       style="fill:#ffffff;stroke:none;stroke-width:2;stroke-linecap:round;stroke-linejoin:round" />
    <polyline
       stroke-miterlimit="10"
       points="37.9219,35.1094 40.3905,41.6746 45.75,47.2247 10.25,47.125 14.0417,42.25 15.6667,34.0781 20.4306,21.1476 23.1528,23.8698 25.875,25.9115 28.5972,31.3559 32,31.3559 37.4444,35.4392"
       id="polyline6"
       style="fill:#9b9b9a;stroke:#9b9b9a;stroke-width:0.89999998;stroke-linecap:round;stroke-linejoin:round;stroke-miterlimit:10" />
    <path
       stroke-miterlimit="10"
       d="m 37,52 c -2.6985,-2.7727 -4.6708,-3.179 -6,-3 -3.0049,0.4046 -4.3383,4.0176 -8,4 C 22.6139,52.9981 21.6964,52.9932 20.6667,52.5456 18.0565,51.411 17.6107,48.5751 14,49 9.9469,49.477 9.091,53.5912 6,53 h 29.6875"
       id="path8"
       inkscape:connector-curvature="0"
       style="fill:#92d3f5;stroke:#92d3f5;stroke-width:1.89999998;stroke-linecap:round;stroke-linejoin:round;stroke-miterlimit:10" />
    <path
       stroke-miterlimit="10"
       d="m 66.28,39.6464 c 0,-1.586 -1.6295,-2.8743 -3.6396,-2.8743 -0.1679,0.0014 -0.3356,0.012 -0.5025,0.0318 C 61.2867,35.1493 59.4384,34 57.2891,34 c -2.9556,0 -5.3514,2.1685 -5.3514,4.8432 5e-4,0.1768 0.0116,0.3535 0.0332,0.5288 -1.3211,0.4311 -2.2509,1.4576 -2.2509,2.6564 0,1.5861 1.6295,2.8743 3.6396,2.8743 0.764,0.0066 1.5164,-0.1926 2.1825,-0.578 0.8599,0.7071 2.2359,1.1677 3.7918,1.1677 2.6069,0 4.7201,-1.2869 4.7201,-2.8743 -4e-4,-0.1049 -0.0101,-0.2096 -0.029,-0.3128 1.323,-0.4317 2.255,-1.4588 2.255,-2.6589 z"
       id="path10"
       inkscape:connector-curvature="0"
       style="fill:#b1cc33;stroke:#b1cc33;stroke-width:1.89999998;stroke-linecap:round;stroke-miterlimit:10" />
    <path
       stroke-miterlimit="10"
       d="M 48.72,41.0284"
       id="path12"
       inkscape:connector-curvature="0"
       style="fill:#ffffff;stroke:none;stroke-width:2;stroke-linecap:round;stroke-miterlimit:10" />
    <path
       stroke-miterlimit="10"
       d="m 52.898,42.9002 c 0,-1.586 -1.6295,-2.8743 -3.6396,-2.8743 -0.1679,0.0014 -0.3356,0.012 -0.5025,0.0318 -0.8512,-1.6546 -2.6995,-2.8039 -4.8488,-2.8039 -2.9556,0 -5.3514,2.1685 -5.3514,4.8432 5e-4,0.1768 0.0116,0.3535 0.0332,0.5288 -1.3211,0.4311 -2.2509,1.4576 -2.2509,2.6564 0,1.5861 1.6295,2.8743 3.6396,2.8743 0.764,0.0066 1.5164,-0.1926 2.1825,-0.578 0.8599,0.7071 2.2359,1.1677 3.7918,1.1677 2.6069,0 4.7201,-1.2869 4.7201,-2.8743 -4e-4,-0.1049 -0.0101,-0.2096 -0.029,-0.3128 1.323,-0.4317 2.255,-1.4588 2.255,-2.6589 z"
       id="path14"
       inkscape:connector-curvature="0"
       style="fill:#b1cc33;stroke:none;stroke-width:1.89999998;stroke-linecap:round;stroke-miterlimit:10" />
  </g>
  <g
     id="hair"
     transform="translate(-3.6000093,-2.3001409)" />
  <g
     id="skin"
     transform="translate(-3.6000093,-2.3001409)" />
  <g
     id="skin-shadow"
     transform="translate(-3.6000093,-2.3001409)" />
  <g
     id="line"
     transform="translate(-0.13474636,-14.472988)">
    <line
       x1="45"
       x2="45"
       y1="56.434898"
       y2="52"
       id="line20"
       style="fill:none;stroke:#000000;stroke-width:2;stroke-linecap:round;stroke-linejoin:round" />
    <line
       x1="58"
       x2="58"
       y1="53.434898"
       y2="49"
       id="line22"
       style="fill:none;stroke:#000000;stroke-width:2;stroke-linecap:round;stroke-linejoin:round" />
    <path
       stroke-miterlimit="10"
       d="M 37.4595,35.1892"
       id="path24"
       inkscape:connector-curvature="0"
       style="fill:none;stroke:#000000;stroke-width:2;stroke-linecap:round;stroke-linejoin:round;stroke-miterlimit:10" />
    <polyline
       stroke-miterlimit="10"
       points="28.6757,31.1351 25.973,25.7297 23.2703,23.7027 20.5676,21 15.8378,33.8378 14.4865,41.9459 11.7838,46"
       id="polyline26"
       style="fill:none;stroke:#000000;stroke-width:2;stroke-linecap:round;stroke-linejoin:round;stroke-miterlimit:10" />
    <polyline
       stroke-miterlimit="10"
       points="24.6216,25.0541 25.2973,31.1351 32.0541,31.1351 37.4595,35.1892"
       id="polyline28"
       style="fill:none;stroke:#000000;stroke-width:2;stroke-linecap:round;stroke-linejoin:round;stroke-miterlimit:10" />
    <polyline
       stroke-miterlimit="10"
       points="32.0541,31.1351 34.0811,35.1892 34.7568,39.2432 32.0541,43.2999 28,46"
       id="polyline30"
       style="fill:none;stroke:#000000;stroke-width:2;stroke-linecap:round;stroke-linejoin:round;stroke-miterlimit:10" />
    <path
       stroke-miterlimit="10"
       d="M 48.72,41.0284"
       id="path32"
       inkscape:connector-curvature="0"
       style="fill:none;stroke:#000000;stroke-width:2;stroke-linecap:round;stroke-miterlimit:10" />
    <path
       stroke-miterlimit="10"
       d="m 55.5421,44.3247 c 0.8599,0.7071 2.2359,1.1677 3.7918,1.1677 2.6069,0 4.7201,-1.287 4.7201,-2.8743 -4e-4,-0.1049 -0.0101,-0.2096 -0.029,-0.3128 1.323,-0.4317 2.255,-1.4588 2.255,-2.6589 0,-1.586 -1.6295,-2.8743 -3.6396,-2.8743 -0.1679,0.0014 -0.3356,0.012 -0.5025,0.0318 C 61.2867,35.1493 59.4384,34 57.2891,34 c -2.5086,0 -4.6139,1.5621 -5.1934,3.6701"
       id="path34"
       inkscape:connector-curvature="0"
       style="fill:none;stroke:#000000;stroke-width:2;stroke-linecap:round;stroke-miterlimit:10" />
    <path
       stroke-miterlimit="10"
       d="m 52.898,42.9002 c 0,-1.586 -1.6295,-2.8743 -3.6396,-2.8743 -0.1679,0.0014 -0.3356,0.012 -0.5025,0.0318 -0.8512,-1.6546 -2.6995,-2.8039 -4.8488,-2.8039 -2.9556,0 -5.3514,2.1685 -5.3514,4.8432 5e-4,0.1768 0.0116,0.3535 0.0332,0.5288 -1.3211,0.4311 -2.2509,1.4576 -2.2509,2.6564 0,1.5861 1.6295,2.8743 3.6396,2.8743 0.764,0.0066 1.5164,-0.1926 2.1825,-0.578 0.8599,0.7071 2.2359,1.1677 3.7918,1.1677 2.6069,0 4.7201,-1.2869 4.7201,-2.8743 -4e-4,-0.1049 -0.0101,-0.2096 -0.029,-0.3128 1.323,-0.4317 2.255,-1.4588 2.255,-2.6589 z"
       id="path36"
       inkscape:connector-curvature="0"
       style="fill:none;stroke:#000000;stroke-width:1.89999998;stroke-linecap:round;stroke-miterlimit:10" />
    <path
       stroke-miterlimit="10"
       d="m 6,53 c 3.091,0.5912 3.9469,-3.523 8,-4 3.6107,-0.4249 4.0565,2.411 6.6667,3.5456 1.0297,0.4476 1.9472,0.4525 2.3333,0.4544 3.6617,0.0176 4.9951,-3.5954 8,-4 1.3292,-0.179 3.3015,0.2273 6,3"
       id="path38"
       inkscape:connector-curvature="0"
       style="fill:none;stroke:#000000;stroke-width:2;stroke-linecap:round;stroke-linejoin:round;stroke-miterlimit:10" />
  </g>
  <g
     transform="matrix(0.4782969,0,0,0.4782969,10.266193,21.985566)"
     id="color-3">
    <path
       style="fill:#ffffff;stroke:none"
       inkscape:connector-curvature="0"
       d="m 55.0252,31.0855 1.2292,9.9167 c 0,0 -1,6.75 4.6667,3.8333 l -1.6667,-3.1667 1.0833,-4.5833 -0.9167,-4.1667 z"
       id="path2" />
    <path
       style="fill:#a57939;stroke:none"
       inkscape:connector-curvature="0"
       d="m 17.7127,20.398 -10.375,5.625 0.625,2.1875 c 0,0 6.625,0.3125 7.25,1.6875 0.625,1.375 -2.375,13.8125 10.875,18.4375 l 3.375,15.25 c 0,0 -1.75,4.5625 -1.5625,4.4375 0.1875,-0.125 2.875,-0.0625 2.875,-0.0625 l 1.875,-5.5625 -0.25,-7.8125 -0.5,-5 4.3125,0.3125 7.25,-1.0625 4.3125,-0.1875 2.75,4.375 -2.9375,10.8125 -2.6875,4.125 h 3.875 l 5.5,-10.0625 1.25,-3.75 -1.75,-7.1875 3.3125,-9.8125 c 0,0 0.3125,-3.5625 -2.0625,-6.0625 -2.375,-2.5 -13.25,0.5 -13.25,0.5 l -11.5625,-1.4375 -4.3125,0.3125 -1.4375,-2.5 -0.6875,-2.8125 c 0,0 3,-0.125 3.1875,-3.1875 0,0 -3.375,-2.75 -6.5,-0.1875 0,0 -2.5,-2.0625 -2.75,-1.375 z"
       id="path4" />
    <polygon
       style="fill:#6a462f;stroke:none"
       points="23.8377,62.4188 21.921,67.8355 24.8377,67.8355 27.421,62.1688 27.3377,53.5021 26.0877,48.3355 20.921,45.5855 22.0877,51.3355 "
       id="polygon6" />
  </g>
  <g
     transform="matrix(0.4782969,0,0,0.4782969,6.8009303,34.158413)"
     id="hair-6" />
  <g
     transform="matrix(0.4782969,0,0,0.4782969,6.8009303,34.158413)"
     id="skin-7" />
  <g
     transform="matrix(0.4782969,0,0,0.4782969,6.8009303,34.158413)"
     id="skin-shadow-5" />
  <g
     transform="matrix(0.4782969,0,0,0.4782969,10.266193,21.985566)"
     id="line-3">
    <path
       style="fill:none;stroke:#000000;stroke-width:2;stroke-linecap:round;stroke-linejoin:round;stroke-miterlimit:10"
       inkscape:connector-curvature="0"
       stroke-miterlimit="10"
       d="M 28.1685,67.0208 29.3473,63.5681 25.9181,48.107 C 13.5946,44.2492 15.5254,30.4209 15.5254,30.4209 15.3333,28.6554 12.2016,28.6038 12.2016,28.6038 L 9.5517,28.8164 C 8.7512,28.8806 8.0077,28.3982 7.7401,27.6411 l -0.2103,-0.595 c -0.2696,-0.7629 0.0713,-1.6072 0.795,-1.969 l 9.0205,-4.5102 c 0,0 2.2172,-0.8563 3.168,1.5187 0,0 1.1184,-2.6975 6.4764,-0.5542 0,0 -0.4286,4.0721 -5.1437,4.0721"
       id="path12-5" />
    <path
       style="fill:none;stroke:#000000;stroke-width:2;stroke-linecap:round;stroke-linejoin:round;stroke-miterlimit:10"
       inkscape:connector-curvature="0"
       stroke-miterlimit="10"
       d="m 33.0263,39.7485 0.5358,5.6795 c 0,0 -3.0005,3.0188 -2.1432,9.0642"
       id="path14-6" />
    <polyline
       style="fill:none;stroke:#000000;stroke-width:2;stroke-linecap:round;stroke-linejoin:round;stroke-miterlimit:10"
       stroke-miterlimit="10"
       points="23.0964,51.1838 24.0608,62.6628 22.2391,66.8421"
       id="polyline16" />
    <path
       style="fill:none;stroke:#000000;stroke-width:2;stroke-linecap:round;stroke-linejoin:round;stroke-miterlimit:10"
       inkscape:connector-curvature="0"
       stroke-miterlimit="10"
       d="m 23.7837,28.6554 c 0,0 0.671,3.2268 4.8768,1.8649 0.9554,-0.3094 1.9838,-0.2964 2.9608,-0.064 2.4541,0.5839 10.0605,1.4413 13.8729,0.783 0.5614,-0.0969 1.1066,-0.2553 1.637,-0.4631 1.5592,-0.6108 6.7173,-2.1085 11.707,2.3083 2.0034,1.7733 1.7879,4.751 1.0301,7.2283 -0.0102,0.0336 -0.8683,2.7102 0.5438,3.7727"
       id="path18" />
    <polyline
       style="fill:none;stroke:#000000;stroke-width:2;stroke-linecap:round;stroke-linejoin:round;stroke-miterlimit:10"
       stroke-miterlimit="10"
       points="47.6356,37.391 46.7784,46.5842 50.8505,53.2505 47.4678,63.8914 45.1174,67.0208"
       id="polyline20" />
    <path
       style="fill:none;stroke:#000000;stroke-width:2;stroke-linecap:round;stroke-linejoin:round;stroke-miterlimit:10"
       inkscape:connector-curvature="0"
       stroke-miterlimit="10"
       d="m 56.125,37.391 c 0,0 0.9716,4.995 -2.0778,9.7294 0,0 0.1072,3.88 1.3931,6.2375 l -2.036,4.1551"
       id="path22" />
    <path
       style="fill:none;stroke:#000000;stroke-width:2;stroke-linecap:round;stroke-linejoin:round;stroke-miterlimit:10"
       inkscape:connector-curvature="0"
       stroke-miterlimit="10"
       d="m 18.2026,20.2453 c 0,0 0.8573,-4.1257 7.5548,-2.4647 0,0 6.001,0.4822 7.9835,-5.1437 1.9825,-5.6259 -2.1788,-7.698 -2.1788,-7.698"
       id="path24-2" />
    <path
       style="fill:none;stroke:#000000;stroke-width:2;stroke-linecap:round;stroke-linejoin:round;stroke-miterlimit:10"
       inkscape:connector-curvature="0"
       stroke-miterlimit="10"
       d="m 37.8498,8.1547 c 0,0 2.8621,1.9342 0.2904,4.8651 -2.5013,2.8506 -4.8487,2.0226 -4.8487,2.0226"
       id="path26" />
    <path
       style="fill:none;stroke:#000000;stroke-width:2;stroke-linecap:round;stroke-linejoin:round;stroke-miterlimit:10"
       inkscape:connector-curvature="0"
       stroke-miterlimit="10"
       d="m 14.5055,11.0295 c 0,0 -1.2151,4.9964 1.2859,6.9654 2.501,1.969 2.4111,2.5629 2.4111,2.5629"
       id="path28" />
    <path
       style="fill:none;stroke:#000000;stroke-width:2;stroke-linecap:round;stroke-linejoin:round;stroke-miterlimit:10"
       inkscape:connector-curvature="0"
       stroke-miterlimit="10"
       d="m 27.847,10.6544 c 0,0 -1.3159,1.711 0.1307,4.1802 0,0 0.6376,1.6171 -0.6575,2.8709"
       id="path30" />
    <path
       style="fill:none;stroke:#000000;stroke-width:2;stroke-linecap:round;stroke-linejoin:round;stroke-miterlimit:10"
       inkscape:connector-curvature="0"
       stroke-miterlimit="10"
       d="m 20.5065,17.7055 c 0,0 -1.9289,-2.3896 0.6965,-5.015"
       id="path32-9" />
    <path
       style="fill:none;stroke:#000000;stroke-width:2;stroke-linecap:round;stroke-linejoin:round;stroke-miterlimit:10"
       inkscape:connector-curvature="0"
       stroke-miterlimit="10"
       d="m 36.24,48.9236 c 4.753,0.5107 8.8861,0.5288 11.6242,-0.5618"
       id="path34-1" />
  </g>
  <g
     transform="matrix(0.10432067,0.06243463,-0.06243463,0.10432067,21.593865,-1.2780552)"
     id="color-36">
    <path
       style="fill:#d0cfce;stroke:none"
       inkscape:connector-curvature="0"
       d="m 27.421,21.4167 c 0,0 1.25,2.2191 3.5,3.7762 2.25,1.5571 10.3334,2.5571 10.3334,2.5571 l 9.2123,-2.2944 c 0,0 6.0646,1.4402 7.4908,3.0883 1.4262,1.6481 7.9531,6.8283 0,15.3089 l 0.2389,6.5619 -0.513,10.8811 c 0,0 -1.0214,1.2169 -1.429,1.2169 -0.4077,0 -2.8165,-1.2169 -2.8165,-1.2169 L 53.7544,55.5 53.3377,52.25 50.671,47 48.421,45.2356 c 0,0 -3.6692,1.3718 -4.3333,1.3484 C 43.4236,46.5606 36.0861,47 36.0861,47 c 0,0 -3.2406,-0.0821 -4.2862,-0.8744 l -2.8158,13.9939 -1.6999,0.9492 -2.5097,-1.0779 0.7298,-12.1575 -0.7298,-2.5977 c -2.9225,0.0141 -4.7627,-1.6712 -5.9368,-4.4023 l -3.338,-7.061 -1.079,-5.2069 -6.1626,-1.7813 -1.661,-3.7008 4.4991,-2.856 1.6358,-1.7873 3.1933,-2.7895 c 0,0 3.0425,-4.1482 6.1441,-2.2744 3.1016,1.8738 5.1726,4.1393 5.1726,4.1393 z"
       id="path2-0" />
    <path
       style="fill:#a57939;stroke:none"
       inkscape:connector-curvature="0"
       d="m 15.0907,16.9713 c 0,0 -0.0553,2.7787 4.2521,2.2162 l 1.8699,-1.0705 1.1497,0.5825 v 1.9255 l -1.322,1.6734 -2.7027,-0.6734 -2.2805,-0.0234 -0.3451,1.1858 0.8418,1.7111 1.5338,1.8139 h 2.75 l 3.5255,-0.8063 2.6117,-3.0306 0.6188,-2.7873 -0.506,-3.1257 -2.0625,-2.1875 -3.3721,-1.1395 -3.2188,0.3255 z"
       id="path4-6" />
    <path
       style="fill:#ffffff;stroke:none"
       inkscape:connector-curvature="0"
       d="m 23.4627,26.3125 c 0,0 -0.926,4.6708 -7.963,5.9291 l 2.4651,6.4437 c 0,0 1.2176,5.0565 2.1229,5.1674 0.9054,0.1109 4.895,1.8209 4.895,1.8209 0,0 3.7861,-2.5068 7.3205,-0.7152 l -0.4716,-3.5115 c 0,0 9.8394,-4.0719 16.2353,1.8031 0,0 7.034,-3.159 9.9024,4.358 l 0.299,-4.358 3.3541,-4 v -4.625 l -2.2387,-4.433 -3.8811,-3.3446 -4.1445,-1.6545 -5.2645,1.5516 -5.6543,0.5404 -4.6278,-0.4375 -5.2469,-2.5974 -2.9709,-1.96 c 0,0 -2.4971,4.2492 -4.131,4.0225 z"
       id="path6" />
  </g>
  <g
     transform="matrix(0.10432067,0.06243463,-0.06243463,0.10432067,21.593865,-1.2780552)"
     id="hair-2" />
  <g
     transform="matrix(0.10432067,0.06243463,-0.06243463,0.10432067,21.593865,-1.2780552)"
     id="skin-6" />
  <g
     transform="matrix(0.10432067,0.06243463,-0.06243463,0.10432067,21.593865,-1.2780552)"
     id="skin-shadow-1" />
  <g
     transform="matrix(0.10432067,0.06243463,-0.06243463,0.10432067,21.593865,-1.2780552)"
     id="line-8">
    <path
       style="fill:none;stroke:#000000;stroke-width:2;stroke-linecap:round;stroke-linejoin:round;stroke-miterlimit:10"
       inkscape:connector-curvature="0"
       stroke-miterlimit="10"
       d="m 30.5646,25.1929 0.5192,0.26 c 0,0 8.4026,3.5753 16.954,0.7563 0,0 8.1052,-2.4752 12.2693,5.5005 2.7067,5.1842 0.6735,8.54 -1.0813,10.2539 -1.0828,1.0576 -1.6594,2.5275 -1.4654,4.0286 l 0.4646,3.5942 -0.3795,10.9952 c -0.0372,1.0771 -0.9211,1.931 -1.9988,1.931 h -0.5794 c -1.1966,0 -2.1254,-1.0437 -1.9865,-2.2323 l 0.2318,-5.4098 c 0.073,-1.7043 -0.3885,-3.3889 -1.32,-4.818 l -3.4857,-5.3479 c 0,0 -2.8257,-5.1567 -0.5205,-8.8008"
       id="path12-7" />
    <path
       style="fill:none;stroke:#000000;stroke-width:2;stroke-linecap:round;stroke-linejoin:round;stroke-miterlimit:10"
       inkscape:connector-curvature="0"
       stroke-miterlimit="10"
       d="m 36.0861,46.1265 c 3.5312,0.4581 9.2266,0.9151 11.6542,-0.4592"
       id="path14-9" />
    <path
       style="fill:none;stroke:#000000;stroke-width:2;stroke-linecap:round;stroke-linejoin:round;stroke-miterlimit:10"
       inkscape:connector-curvature="0"
       stroke-miterlimit="10"
       d="m 63.0383,28.9594 c 0,0 3.1975,0.1375 3.3462,4.813"
       id="path16" />
    <path
       style="fill:none;stroke:#000000;stroke-width:2;stroke-linecap:round;stroke-linejoin:round;stroke-miterlimit:10"
       inkscape:connector-curvature="0"
       stroke-miterlimit="10"
       d="m 19.5581,18.2215 c 0,0 2.7513,-1.3862 3.0487,1.3862 0.1487,1.3862 -0.6784,1.9951 -1.3481,2.5483 -0.9896,0.8174 -3.3808,0.0229 -4.7505,-0.5393 -0.4961,-0.2036 -1.0303,0.234 -0.912,0.757 0.352,1.5559 1.5637,3.7142 4.2163,4.1262 6.4375,1 11.0482,-7.7853 4.8764,-11.9107 -6.7203,-4.492 -9.7411,2.6815 -9.7411,2.6815 l -2.7362,1.4439 -1.1154,1.5126 c 0,0 -6.0962,1.6336 -4.0962,4.9394 l 1.75,2.25 4.1958,0.3953 c 1.136,0.107 2.0137,1.0444 2.0459,2.185 l 1.028,4.5431 3.6444,7.767 c 0.504,1.0741 1.4088,1.9079 2.5204,2.3226 l 2.7982,1.044 c 0.4563,1.1771 0.7472,2.1251 0.7472,2.1251 L 24.5526,58.857 c -0.1258,1.1817 0.8004,2.2117 1.9888,2.2117 h 0.7429 c 0.9595,0 1.7838,-0.6814 1.9643,-1.6237 l 2.7706,-14.4637 c 0.0701,-0.3659 0.0872,-0.7399 0.0507,-1.1106 L 31.53,38.3791"
       id="path18-2" />
  </g>
  <g
     transform="matrix(0.16677183,0,0,0.16677183,53.991286,8.4831344)"
     id="color-0">
    <path
       style="fill:#a57939;stroke:none"
       inkscape:connector-curvature="0"
       d="m 16.7701,49.5304 c 0,0 -5.6081,-13.4595 14.5811,-12.3379 0,0 4.4865,-20.1893 32.5272,-26.919 0,0 5.6081,26.919 -23.5541,38.1353 0,0 0,8.973 8.973,11.2163 1.2317,0.3079 3.0236,-0.3413 3.3649,0 2.2433,2.2433 -12.3379,4.4865 -15.7028,3.3649 v -6.7298 c 0,0 -7.8514,0 -11.2163,-8.973 0,-10e-5 -2.2433,-4.4866 -8.973,2.2432 z"
       id="path2-2" />
    <path
       style="fill:#6a462f;stroke:none"
       inkscape:connector-curvature="0"
       d="m 33.5945,30.3411 c 0,0 0,-20.0676 6.7298,-23.4325 0,0 5.6081,4.4865 4.4865,11.2163 z"
       id="path4-3" />
    <path
       style="fill:#ffffff;stroke:none"
       inkscape:connector-curvature="0"
       d="m 26.2427,46.3372 c 0,0 -4.1575,-2.4149 -9.3514,3.1932 0,0 -6.4923,-13.1612 15.5815,-12.7495 z"
       id="path6-7" />
    <polygon
       style="fill:#fcea2b;stroke:none"
       points="16.1536,43.2699 20.0972,45.7027 16.7701,48.4087 "
       id="polygon8" />
    <path
       style="fill:none;stroke:#a57939;stroke-width:2;stroke-linecap:round;stroke-linejoin:round;stroke-miterlimit:10"
       inkscape:connector-curvature="0"
       stroke-miterlimit="10"
       d="M 16.7701,49.5304"
       id="path10-5" />
  </g>
  <g
     transform="matrix(0.25418659,0,0,0.25418659,36.245139,12.757152)"
     id="hair-9" />
  <g
     transform="matrix(0.25418659,0,0,0.25418659,36.245139,12.757152)"
     id="skin-2" />
  <g
     transform="matrix(0.25418659,0,0,0.25418659,36.245139,12.757152)"
     id="skin-shadow-2" />
  <g
     transform="matrix(0.16677183,0,0,0.16677183,53.991286,8.4831344)"
     id="line-89">
    <path
       style="fill:none;stroke:#000000;stroke-width:2;stroke-linecap:round;stroke-linejoin:round;stroke-miterlimit:10"
       inkscape:connector-curvature="0"
       stroke-miterlimit="10"
       d="m 43.6891,14.76 c 0,-4.4865 -3.3649,-6.7298 -3.3649,-6.7298 -6.7298,4.4865 -6.7298,17.946 -7.8514,24.6758 -0.4206,2.5237 -0.6835,3.6278 -1.321,4.1207 -1.0625,0.8215 -3.1655,-0.0548 -8.7737,1.1136 -8.973,1.8694 -5.6081,11.5901 -5.6081,11.5901 6.7298,-6.7298 8.973,-2.2433 8.973,-2.2433 3.3649,10.0946 10.0946,8.973 10.0946,8.973 1.1216,4.4865 0,6.7298 0,6.7298 3.3649,3.3649 26.919,-3.3649 15.2354,-4.1126 C 39.3894,58.1295 40.3241,48.4088 40.3241,48.4088 c 4.1408,-2.3005 7.6106,-4.6848 10.5155,-7.0871 0,0 0.7008,-1.8859 -1.5425,-7.494"
       id="path16-7" />
    <path
       style="fill:none;stroke:#000000;stroke-width:2;stroke-linecap:round;stroke-linejoin:round;stroke-miterlimit:10"
       inkscape:connector-curvature="0"
       stroke-miterlimit="10"
       d="m 31.3512,37.1925 c 1.1216,-7.8514 13.4595,-17.946 13.4595,-17.946 0,0 12.3379,-8.973 20.1893,-8.973 0,0 0,16.8244 -10.0946,28.0406 0,0 0,-6.7298 -2.2433,-8.973"
       id="path18-3" />
    <path
       style="fill:none;stroke:#000000;stroke-width:2;stroke-linecap:round;stroke-linejoin:round;stroke-miterlimit:10"
       inkscape:connector-curvature="0"
       stroke-miterlimit="10"
       d="M 30.0193,54.2272 29.108,59.625 c 0,0 -3.3775,-1.1341 -4.4865,0"
       id="path20" />
    <path
       style="fill:none;stroke:#000000;stroke-width:2;stroke-linecap:round;stroke-linejoin:round;stroke-miterlimit:10"
       inkscape:connector-curvature="0"
       stroke-miterlimit="10"
       d="m 29.108,59.625 c 0,0 2.2433,0 2.2433,1.1216"
       id="path22-6" />
  </g>
</svg>
