<?xml version="1.0" encoding="UTF-8" standalone="no"?>
<svg
   xmlns:dc="http://purl.org/dc/elements/1.1/"
   xmlns:cc="http://creativecommons.org/ns#"
   xmlns:rdf="http://www.w3.org/1999/02/22-rdf-syntax-ns#"
   xmlns:svg="http://www.w3.org/2000/svg"
   xmlns="http://www.w3.org/2000/svg"
   xmlns:sodipodi="http://sodipodi.sourceforge.net/DTD/sodipodi-0.dtd"
   xmlns:inkscape="http://www.inkscape.org/namespaces/inkscape"
   id="emoji"
   viewBox="0 0 72 72"
   version="1.1"
   sodipodi:docname="no sigh.svg"
   inkscape:version="0.92.5 (2060ec1f9f, 2020-04-08)">
  <metadata
     id="metadata39">
    <rdf:RDF>
      <cc:Work
         rdf:about="">
        <dc:format>image/svg+xml</dc:format>
        <dc:type
           rdf:resource="http://purl.org/dc/dcmitype/StillImage" />
      </cc:Work>
    </rdf:RDF>
  </metadata>
  <defs
     id="defs37" />
  <sodipodi:namedview
     pagecolor="#ffffff"
     bordercolor="#666666"
     borderopacity="1"
     objecttolerance="10"
     gridtolerance="10"
     guidetolerance="10"
     inkscape:pageopacity="0"
     inkscape:pageshadow="2"
     inkscape:window-width="1920"
     inkscape:window-height="1052"
     id="namedview35"
     showgrid="false"
     inkscape:zoom="6.8312838"
     inkscape:cx="-8.1957267"
     inkscape:cy="8.4888059"
     inkscape:window-x="0"
     inkscape:window-y="452"
     inkscape:window-maximized="1"
     inkscape:current-layer="emoji" />
  <g
     id="color">
    <path
       fill="#ea5a47"
       stroke-miterlimit="10"
       d="m36 7c-16.02 0-29 12.98-29 29s12.98 29 29 29 29-12.98 29-29-12.98-29-29-29zm-25.21 29.27c0-5.075 3.417-12.69 6.202-16.49l35.2 35.27c-3.805 2.784-10.93 5.904-16.01 5.904-12.7 0-25.39-11.98-25.39-24.68zm44.87 15.18-35.06-35.13c3.805-2.784 10.77-5.441 15.84-5.441 12.7 0 24.68 12.25 24.68 24.95 0 5.075-2.686 11.81-5.47 15.62z"
       id="path4" />
  </g>
  <g
     id="line">
    <circle
       cx="36"
       cy="36"
       r="30"
       id="circle15"
       stroke-linejoin="round"
       stroke-linecap="round"
       stroke-width="2"
       stroke="#000"
       fill="none" />
    <path
       d="m55.66 51.44a24.99 24.99 0 0 0-35.06-35.13z"
       id="path17"
       stroke-linejoin="round"
       stroke-linecap="round"
       stroke-width="2"
       stroke="#000"
       fill="none" />
    <path
       d="m16.99 19.77a24.99 24.99 0 0 0 35.2 35.27z"
       id="path19"
       stroke-linejoin="round"
       stroke-linecap="round"
       stroke-width="2"
       stroke="#000"
       fill="none" />
  </g>
</svg>
